<?xml version="1.0" encoding="UTF-8" standalone="no"?>
<svg
   width="159.629"
   height="35.080448"
   viewBox="0 0 159.62899 35.080449"
   version="1.1"
   id="svg90"
   sodipodi:docname="myflairs.svg"
   xmlns:inkscape="http://www.inkscape.org/namespaces/inkscape"
   xmlns:sodipodi="http://sodipodi.sourceforge.net/DTD/sodipodi-0.dtd"
   xmlns="http://www.w3.org/2000/svg"
   xmlns:svg="http://www.w3.org/2000/svg">
  <defs
     id="defs94" />
  <sodipodi:namedview
     id="namedview92"
     pagecolor="#ffffff"
     bordercolor="#111111"
     borderopacity="1"
     inkscape:showpageshadow="0"
     inkscape:pageopacity="0"
     inkscape:pagecheckerboard="1"
     inkscape:deskcolor="#d1d1d1"
     showgrid="false" />
  <g
     id="Group_917"
     data-name="Group 917"
     transform="translate(-38.327,-8.0575505)">
    <path
       id="Path_82"
       data-name="Path 82"
       d="m 64.1,62.266 h 4.363 v -7.52 h 6.28 v -3.538 h -6.28 V 46.456 H 75.3 V 42.9 H 64.1 Z"
       transform="translate(-25.773,-34.515)"
       fill="#d13b27"
       fill-rule="evenodd" />
    <path
       id="Path_83"
       data-name="Path 83"
       d="M 80.428,42.9 H 76.067 V 62.266 H 87.6 v -3.538 h -7.172 z"
       transform="translate(-22.933,-34.515)"
       fill="#d13b27"
       fill-rule="evenodd" />
    <path
       id="Path_84"
       data-name="Path 84"
       d="m 98.871,42.905 h -5.179 l -7.05,19.361 h 4.727 l 1.356,-4.307 h 6.887 l 1.378,4.307 h 4.745 z m -5.2,11.705 2.108,-6.553 a 7.479,7.479 0 0 0 0.337,-1.688 h 0.109 a 8.613,8.613 0 0 0 0.323,1.742 l 2.081,6.508 z"
       transform="translate(-20.423,-34.514)"
       fill="#d13b27"
       fill-rule="evenodd" />
    <path
       id="Path_85"
       data-name="Path 85"
       d="m 108.741,42.905 h -4.361 v 19.361 h 4.361 z"
       transform="translate(-16.212,-34.514)"
       fill="#d13b27" />
    <path
       id="Path_86"
       data-name="Path 86"
       d="m 124.388,56.539 c -0.187,-0.3 -0.4,-0.6 -0.629,-0.9 a 9.8,9.8 0 0 0 -0.72,-0.87 5.89,5.89 0 0 0 -0.785,-0.71 2.763,2.763 0 0 0 -0.835,-0.438 v -0.054 a 7.071,7.071 0 0 0 1.787,-0.784 5.511,5.511 0 0 0 1.372,-1.189 5.243,5.243 0 0 0 0.879,-1.546 5.489,5.489 0 0 0 0.309,-1.869 q 0,-5.267 -7.051,-5.265 H 111.8 v 19.357 h 4.373 v -7.409 h 1.176 a 1.667,1.667 0 0 1 0.747,0.17 2.533,2.533 0 0 1 0.662,0.486 5.645,5.645 0 0 1 0.629,0.764 c 0.208,0.3 0.422,0.635 0.648,1.012 l 3.012,4.983 h 5.01 z m -4.078,-5.792 a 3.143,3.143 0 0 1 -2.259,0.809 h -1.876 v -5.387 h 1.97 q 3.042,0 3.04,2.54 a 2.72,2.72 0 0 1 -0.875,2.038 z"
       transform="translate(-14.451,-34.513)"
       fill="#d13b27"
       fill-rule="evenodd" />
    <path
       id="Path_87"
       data-name="Path 87"
       d="m 137.874,53.254 a 7.452,7.452 0 0 0 -1.581,-1.234 16.692,16.692 0 0 0 -2.085,-1.033 q -0.852,-0.339 -1.526,-0.678 a 7.778,7.778 0 0 1 -1.151,-0.678 2.93,2.93 0 0 1 -0.728,-0.728 1.538,1.538 0 0 1 -0.257,-0.872 1.449,1.449 0 0 1 0.226,-0.8 1.949,1.949 0 0 1 0.648,-0.615 3.386,3.386 0 0 1 1.026,-0.4 5.928,5.928 0 0 1 1.356,-0.142 8.554,8.554 0 0 1 1.13,0.081 9.051,9.051 0 0 1 1.209,0.248 8.672,8.672 0 0 1 1.179,0.425 6.693,6.693 0 0 1 1.062,0.594 v -4.036 a 10.52,10.52 0 0 0 -2.156,-0.56 17.447,17.447 0 0 0 -2.68,-0.183 12.4,12.4 0 0 0 -2.916,0.332 7.412,7.412 0 0 0 -2.425,1.033 5.164,5.164 0 0 0 -1.654,1.787 5.26,5.26 0 0 0 -0.608,2.6 5.03,5.03 0 0 0 1.11,3.295 8.6,8.6 0 0 0 3.389,2.31 c 0.594,0.244 1.148,0.481 1.661,0.716 a 9.085,9.085 0 0 1 1.331,0.728 3.479,3.479 0 0 1 0.886,0.825 1.689,1.689 0 0 1 0.323,1.012 1.568,1.568 0 0 1 -0.2,0.777 1.779,1.779 0 0 1 -0.613,0.619 3.382,3.382 0 0 1 -1.028,0.414 6.148,6.148 0 0 1 -1.438,0.147 8.173,8.173 0 0 1 -2.782,-0.493 8.271,8.271 0 0 1 -2.553,-1.478 v 4.321 a 9.12,9.12 0 0 0 2.486,0.809 16.306,16.306 0 0 0 3.029,0.271 14.25,14.25 0 0 0 2.967,-0.3 7.211,7.211 0 0 0 2.452,-0.981 4.97,4.97 0 0 0 1.667,-1.781 6.285,6.285 0 0 0 0.265,-4.779 4.849,4.849 0 0 0 -1.021,-1.573 z"
       transform="translate(-11.094,-34.577)"
       fill="#d13b27"
       fill-rule="evenodd" />
    <path
       id="Path_88"
       data-name="Path 88"
       d="m 138.149,46.456 h 5.5 v 15.81 h 4.375 v -15.81 h 5.525 V 42.9 h -15.4 z"
       transform="translate(-8.196,-34.515)"
       fill="#373636"
       fill-rule="evenodd" />
    <path
       id="Path_89"
       data-name="Path 89"
       d="m 157.4,54.3 h 6.333 V 50.762 H 157.4 v -4.306 h 6.806 V 42.9 h -11.168 v 19.366 h 11.615 V 58.728 H 157.4 Z"
       transform="translate(-4.662,-34.515)"
       fill="#373636"
       fill-rule="evenodd" />
    <path
       id="Path_90"
       data-name="Path 90"
       d="m 167.16,45.532 a 10.215,10.215 0 0 0 -2.869,7.534 9.574,9.574 0 0 0 2.554,6.98 9.317,9.317 0 0 0 7,2.619 12.789,12.789 0 0 0 5.538,-1.026 v -3.983 a 9.071,9.071 0 0 1 -4.674,1.243 5.584,5.584 0 0 1 -4.255,-1.668 6.248,6.248 0 0 1 -1.581,-4.476 6.343,6.343 0 0 1 1.674,-4.644 5.925,5.925 0 0 1 4.405,-1.715 8.465,8.465 0 0 1 4.429,1.162 v -4.2 a 13.921,13.921 0 0 0 -4.781,-0.716 10.034,10.034 0 0 0 -7.44,2.89 z"
       transform="translate(-1.991,-34.577)"
       fill="#373636"
       fill-rule="evenodd" />
    <path
       id="Path_91"
       data-name="Path 91"
       d="m 191.945,42.9 v 7.724 h -8.022 V 42.9 h -4.362 v 19.366 h 4.362 V 54.38 h 8.022 v 7.886 h 4.377 V 42.9 Z"
       transform="translate(1.634,-34.515)"
       fill="#373636"
       fill-rule="evenodd" />
    <path
       id="Path_92"
       data-name="Path 92"
       d="M 64.365,70.486 V 64.193 H 64.8 v 6.293 z"
       transform="translate(-25.711,-29.461)"
       fill="#373636" />
    <path
       id="Path_93"
       data-name="Path 93"
       d="M 70.728,70.486 66.981,65.4 a 3.021,3.021 0 0 1 -0.2,-0.307 L 66.725,65.005 H 66.7 V 70.48 H 66.266 V 64.193 H 66.6 l 3.731,5.05 c 0.081,0.111 0.17,0.244 0.267,0.4 h 0.023 c -0.016,-0.2 -0.023,-0.38 -0.023,-0.526 v -4.924 h 0.436 v 6.293 z"
       transform="translate(-25.259,-29.461)"
       fill="#373636" />
    <path
       id="Path_94"
       data-name="Path 94"
       d="M 76.132,70.486 72.383,65.4 a 2.629,2.629 0 0 1 -0.2,-0.307 L 72.124,65.005 H 72.106 V 70.48 H 71.69 v -6.287 h 0.334 l 3.713,5.05 c 0.081,0.111 0.172,0.244 0.267,0.4 h 0.023 c -0.014,-0.2 -0.023,-0.38 -0.023,-0.526 v -4.924 h 0.432 v 6.293 z"
       transform="translate(-23.973,-29.461)"
       fill="#373636" />
    <path
       id="Path_95"
       data-name="Path 95"
       d="m 79.737,70.619 a 2.711,2.711 0 0 1 -2.126,-0.888 3.329,3.329 0 0 1 -0.791,-2.3 3.482,3.482 0 0 1 0.814,-2.413 2.82,2.82 0 0 1 2.223,-0.9 2.653,2.653 0 0 1 2.061,0.872 3.279,3.279 0 0 1 0.786,2.284 3.537,3.537 0 0 1 -0.807,2.459 2.766,2.766 0 0 1 -2.16,0.893 z m 0.045,-6.115 a 2.314,2.314 0 0 0 -1.808,0.8 3.453,3.453 0 0 0 -0.029,4.149 2.26,2.26 0 0 0 1.79,0.771 2.351,2.351 0 0 0 1.848,-0.761 3.082,3.082 0 0 0 0.678,-2.122 2.973,2.973 0 0 0 -0.664,-2.083 2.3,2.3 0 0 0 -1.81,-0.75 z"
       transform="translate(-22.755,-29.481)"
       fill="#373636" />
    <path
       id="Path_96"
       data-name="Path 96"
       d="m 84.991,70.486 h -0.325 l -2.3,-6.293 h 0.486 l 1.821,5.068 a 3.47,3.47 0 0 1 0.163,0.6 h 0.018 a 4.545,4.545 0 0 1 0.181,-0.608 l 1.934,-5.059 h 0.466 z"
       transform="translate(-21.438,-29.461)"
       fill="#373636" />
    <path
       id="Path_97"
       data-name="Path 97"
       d="M 91.089,70.486 90.37,68.529 h -2.73 l -0.721,1.957 h -0.477 l 2.373,-6.293 h 0.414 l 2.348,6.293 z m -1.93,-5.267 A 2.363,2.363 0 0 1 89.08,64.961 C 89.06,64.887 89.037,64.814 89.014,64.735 H 89 a 4.331,4.331 0 0 1 -0.145,0.47 l -1.057,2.917 h 2.427 z"
       transform="translate(-20.47,-29.461)"
       fill="#373636" />
    <path
       id="Path_98"
       data-name="Path 98"
       d="m 92.725,64.593 v 5.893 H 92.307 V 64.593 H 90.5 v -0.4 h 4.067 v 0.4 z"
       transform="translate(-19.508,-29.461)"
       fill="#373636" />
    <path
       id="Path_99"
       data-name="Path 99"
       d="m 94.882,70.486 v -6.293 h 0.452 v 6.293 z"
       transform="translate(-18.467,-29.461)"
       fill="#373636" />
    <path
       id="Path_100"
       data-name="Path 100"
       d="m 99.46,70.619 a 2.711,2.711 0 0 1 -2.126,-0.888 3.328,3.328 0 0 1 -0.791,-2.3 3.482,3.482 0 0 1 0.813,-2.413 2.82,2.82 0 0 1 2.223,-0.9 2.654,2.654 0 0 1 2.061,0.872 3.278,3.278 0 0 1 0.786,2.284 3.535,3.535 0 0 1 -0.807,2.459 2.765,2.765 0 0 1 -2.16,0.893 z M 99.5,64.5 a 2.314,2.314 0 0 0 -1.808,0.8 3.453,3.453 0 0 0 -0.029,4.149 2.26,2.26 0 0 0 1.79,0.771 2.349,2.349 0 0 0 1.848,-0.761 3.077,3.077 0 0 0 0.678,-2.122 2.972,2.972 0 0 0 -0.664,-2.083 A 2.3,2.3 0 0 0 99.5,64.5 Z"
       transform="translate(-18.074,-29.481)"
       fill="#373636" />
    <path
       id="Path_101"
       data-name="Path 101"
       d="M 107.038,70.486 103.29,65.4 a 2.829,2.829 0 0 1 -0.2,-0.307 l -0.057,-0.088 h -0.017 v 5.475 h -0.437 v -6.287 h 0.335 l 3.731,5.05 c 0.08,0.111 0.171,0.244 0.269,0.4 h 0.02 c -0.014,-0.2 -0.02,-0.38 -0.02,-0.526 v -4.924 h 0.434 v 6.293 z"
       transform="translate(-16.64,-29.461)"
       fill="#373636" />
    <path
       id="Path_102"
       data-name="Path 102"
       d="m 111.843,72.711 v -8.989 h 0.416 v 8.989 z"
       transform="translate(-14.441,-29.573)"
       fill="#373636" />
    <path
       id="Path_103"
       data-name="Path 103"
       d="m 119.4,64.593 v 5.893 h -0.434 v -5.893 h -1.808 v -0.4 h 4.067 v 0.4 z"
       transform="translate(-13.179,-29.461)"
       fill="#373636" />
    <path
       id="Path_104"
       data-name="Path 104"
       d="m 124.941,70.486 -0.72,-1.957 h -2.73 l -0.719,1.957 h -0.479 l 2.375,-6.293 h 0.412 l 2.347,6.293 z m -1.932,-5.267 a 2.652,2.652 0 0 1 -0.079,-0.258 c -0.02,-0.074 -0.043,-0.147 -0.066,-0.226 h -0.017 a 4.446,4.446 0 0 1 -0.145,0.47 l -1.058,2.917 h 2.426 z"
       transform="translate(-12.435,-29.461)"
       fill="#373636" />
    <path
       id="Path_105"
       data-name="Path 105"
       d="M 125.562,70.486 V 64.193 H 126 v 5.9 h 2.524 v 0.4 z"
       transform="translate(-11.184,-29.461)"
       fill="#373636" />
    <path
       id="Path_106"
       data-name="Path 106"
       d="m 129.143,70.486 v -6.293 h 2.938 v 0.4 h -2.508 v 2.522 h 2.327 v 0.4 h -2.327 v 2.58 h 2.653 v 0.4 z"
       transform="translate(-10.334,-29.461)"
       fill="#373636" />
    <path
       id="Path_107"
       data-name="Path 107"
       d="M 137.482,70.486 133.731,65.4 a 3.042,3.042 0 0 1 -0.2,-0.307 l -0.056,-0.088 h -0.019 v 5.475 h -0.422 v -6.287 h 0.334 l 3.722,5.05 c 0.08,0.111 0.171,0.244 0.266,0.4 h 0.022 c -0.014,-0.2 -0.022,-0.38 -0.022,-0.526 v -4.924 h 0.445 v 6.293 z"
       transform="translate(-9.411,-29.461)"
       fill="#373636" />
    <path
       id="Path_108"
       data-name="Path 108"
       d="m 140.247,64.593 v 5.893 h -0.432 v -5.893 h -1.808 v -0.4 h 4.067 v 0.4 z"
       transform="translate(-8.23,-29.461)"
       fill="#373636" />
    <path
       id="Path_109"
       data-name="Path 109"
       d="m 146.258,72.711 v -8.989 h 0.417 v 8.989 z"
       transform="translate(-6.271,-29.573)"
       fill="#373636" />
    <path
       id="Path_110"
       data-name="Path 110"
       d="m 152.008,70.486 v -6.293 h 2.938 v 0.4 h -2.5 v 2.522 h 2.318 v 0.4 h -2.328 v 2.58 h 2.652 v 0.4 z"
       transform="translate(-4.907,-29.461)"
       fill="#373636" />
    <path
       id="Path_111"
       data-name="Path 111"
       d="m 159.411,70.484 -1.449,-2.4 a 4.447,4.447 0 0 1 -0.225,-0.438 h -0.024 a 4.277,4.277 0 0 1 -0.249,0.438 l -1.489,2.4 h -0.522 l 1.988,-3.163 -1.869,-3.121 h 0.522 l 1.409,2.366 c 0.073,0.122 0.15,0.262 0.226,0.42 h 0.019 l 0.225,-0.42 1.4,-2.366 h 0.506 l -1.868,3.1 1.932,3.182 z"
       transform="translate(-4.089,-29.459)"
       fill="#373636" />
    <path
       id="Path_112"
       data-name="Path 112"
       d="m 164.363,70.3 a 4.133,4.133 0 0 1 -1.594,0.316 2.753,2.753 0 0 1 -2.1,-0.868 3.164,3.164 0 0 1 -0.815,-2.26 3.407,3.407 0 0 1 0.883,-2.456 2.969,2.969 0 0 1 2.241,-0.924 4.193,4.193 0 0 1 1.388,0.226 v 0.452 a 3.358,3.358 0 0 0 -1.395,-0.3 2.5,2.5 0 0 0 -1.928,0.8 3.032,3.032 0 0 0 -0.741,2.138 2.845,2.845 0 0 0 0.708,2.034 2.381,2.381 0 0 0 1.808,0.743 3.509,3.509 0 0 0 1.557,-0.337 z"
       transform="translate(-3.046,-29.481)"
       fill="#373636" />
    <path
       id="Path_113"
       data-name="Path 113"
       d="m 164.885,70.486 v -6.293 h 2.938 v 0.4 h -2.5 v 2.522 h 2.328 v 0.4 h -2.328 v 2.58 h 2.655 v 0.4 z"
       transform="translate(-1.85,-29.461)"
       fill="#373636" />
    <path
       id="Path_114"
       data-name="Path 114"
       d="m 168.772,70.486 v -6.293 h 0.434 v 5.9 h 2.524 v 0.4 z"
       transform="translate(-0.927,-29.461)"
       fill="#373636" />
    <path
       id="Path_115"
       data-name="Path 115"
       d="m 172.354,70.486 v -6.293 h 0.436 v 5.9 h 2.524 v 0.4 z"
       transform="translate(-0.077,-29.461)"
       fill="#373636" />
    <path
       id="Path_116"
       data-name="Path 116"
       d="m 175.936,70.486 v -6.293 h 2.938 v 0.4 h -2.5 v 2.522 h 2.326 v 0.4 h -2.325 v 2.58 h 2.65 v 0.4 z"
       transform="translate(0.773,-29.461)"
       fill="#373636" />
    <path
       id="Path_117"
       data-name="Path 117"
       d="m 184.279,70.486 -3.75,-5.086 a 2.73,2.73 0 0 1 -0.2,-0.307 l -0.059,-0.088 h -0.022 v 5.475 h -0.434 v -6.287 h 0.335 l 3.734,5.05 c 0.082,0.111 0.172,0.244 0.267,0.4 h 0.022 c -0.014,-0.2 -0.022,-0.38 -0.022,-0.526 v -4.924 h 0.436 v 6.293 z"
       transform="translate(1.694,-29.461)"
       fill="#373636" />
    <path
       id="Path_118"
       data-name="Path 118"
       d="m 189.478,70.3 a 4.154,4.154 0 0 1 -1.595,0.316 2.753,2.753 0 0 1 -2.1,-0.868 3.165,3.165 0 0 1 -0.814,-2.26 3.416,3.416 0 0 1 0.881,-2.456 2.972,2.972 0 0 1 2.245,-0.924 4.209,4.209 0 0 1 1.387,0.226 v 0.452 a 3.377,3.377 0 0 0 -1.4,-0.3 2.5,2.5 0 0 0 -1.927,0.8 3.027,3.027 0 0 0 -0.741,2.138 2.841,2.841 0 0 0 0.709,2.034 2.378,2.378 0 0 0 1.808,0.743 3.528,3.528 0 0 0 1.559,-0.337 z"
       transform="translate(2.916,-29.481)"
       fill="#373636" />
    <path
       id="Path_119"
       data-name="Path 119"
       d="m 190,70.486 v -6.293 h 2.938 v 0.4 h -2.5 v 2.522 h 2.327 v 0.4 h -2.327 v 2.58 h 2.653 v 0.4 z"
       transform="translate(4.111,-29.461)"
       fill="#373636" />
  </g>
</svg>
