<svg xmlns="http://www.w3.org/2000/svg" width="249.432" height="81.825" viewBox="0 0 249.432 81.825">
  <g id="Group_917" data-name="Group 917" transform="translate(51.477 15.188)">
    <path id="Path_80" data-name="Path 80" d="M29.894,42.589v73.132l11.685.055,3.031,8.638h2.044V59.866l56.882-.165V42.589Z" transform="translate(-81.371 -57.777)" fill="#d13b27" fill-rule="evenodd"/>
    <path id="Path_81" data-name="Path 81" d="M41.556,64.932H61.363V80.179H41.556V95.427H82.694V54.259H41.556Z" transform="translate(-61.034 -37.428)" fill="#373636"/>
    <path id="Path_82" data-name="Path 82" d="M64.1,62.266h4.363v-7.52h6.28V51.208h-6.28V46.456H75.3V42.9H64.1Z" transform="translate(-25.773 -34.515)" fill="#d13b27" fill-rule="evenodd"/>
    <path id="Path_83" data-name="Path 83" d="M80.428,42.9H76.067V62.266H87.6V58.728H80.428Z" transform="translate(-22.933 -34.515)" fill="#d13b27" fill-rule="evenodd"/>
    <path id="Path_84" data-name="Path 84" d="M98.871,42.905H93.692l-7.05,19.361h4.727l1.356-4.307h6.887l1.378,4.307h4.745Zm-5.2,11.705,2.108-6.553a7.479,7.479,0,0,0,.337-1.688h.109a8.613,8.613,0,0,0,.323,1.742l2.081,6.508Z" transform="translate(-20.423 -34.514)" fill="#d13b27" fill-rule="evenodd"/>
    <path id="Path_85" data-name="Path 85" d="M108.741,42.905H104.38V62.266h4.361Z" transform="translate(-16.212 -34.514)" fill="#d13b27"/>
    <path id="Path_86" data-name="Path 86" d="M124.388,56.539c-.187-.3-.4-.6-.629-.9a9.8,9.8,0,0,0-.72-.87,5.89,5.89,0,0,0-.785-.71,2.763,2.763,0,0,0-.835-.438v-.054a7.071,7.071,0,0,0,1.787-.784,5.511,5.511,0,0,0,1.372-1.189,5.243,5.243,0,0,0,.879-1.546,5.489,5.489,0,0,0,.309-1.869q0-5.267-7.051-5.265H111.8V62.271h4.373V54.862h1.176a1.667,1.667,0,0,1,.747.17,2.533,2.533,0,0,1,.662.486,5.645,5.645,0,0,1,.629.764c.208.3.422.635.648,1.012l3.012,4.983h5.01Zm-4.078-5.792a3.143,3.143,0,0,1-2.259.809h-1.876V46.169h1.97q3.042,0,3.04,2.54a2.72,2.72,0,0,1-.875,2.038Z" transform="translate(-14.451 -34.513)" fill="#d13b27" fill-rule="evenodd"/>
    <path id="Path_87" data-name="Path 87" d="M137.874,53.254a7.452,7.452,0,0,0-1.581-1.234,16.692,16.692,0,0,0-2.085-1.033q-.852-.339-1.526-.678a7.778,7.778,0,0,1-1.151-.678,2.93,2.93,0,0,1-.728-.728,1.538,1.538,0,0,1-.257-.872,1.449,1.449,0,0,1,.226-.8,1.949,1.949,0,0,1,.648-.615,3.386,3.386,0,0,1,1.026-.4,5.928,5.928,0,0,1,1.356-.142,8.554,8.554,0,0,1,1.13.081,9.051,9.051,0,0,1,1.209.248,8.672,8.672,0,0,1,1.179.425,6.693,6.693,0,0,1,1.062.594V43.386a10.52,10.52,0,0,0-2.156-.56,17.447,17.447,0,0,0-2.68-.183,12.4,12.4,0,0,0-2.916.332,7.412,7.412,0,0,0-2.425,1.033,5.164,5.164,0,0,0-1.654,1.787,5.26,5.26,0,0,0-.608,2.6,5.03,5.03,0,0,0,1.11,3.295A8.6,8.6,0,0,0,130.442,54c.594.244,1.148.481,1.661.716a9.085,9.085,0,0,1,1.331.728,3.479,3.479,0,0,1,.886.825,1.689,1.689,0,0,1,.323,1.012,1.568,1.568,0,0,1-.2.777,1.779,1.779,0,0,1-.613.619,3.382,3.382,0,0,1-1.028.414,6.148,6.148,0,0,1-1.438.147,8.173,8.173,0,0,1-2.782-.493,8.271,8.271,0,0,1-2.553-1.478v4.321a9.12,9.12,0,0,0,2.486.809,16.306,16.306,0,0,0,3.029.271,14.25,14.25,0,0,0,2.967-.3,7.211,7.211,0,0,0,2.452-.981,4.97,4.97,0,0,0,1.667-1.781,6.285,6.285,0,0,0,.265-4.779A4.849,4.849,0,0,0,137.874,53.254Z" transform="translate(-11.094 -34.577)" fill="#d13b27" fill-rule="evenodd"/>
    <path id="Path_88" data-name="Path 88" d="M138.149,46.456h5.5V62.266h4.375V46.456h5.525V42.9h-15.4Z" transform="translate(-8.196 -34.515)" fill="#373636" fill-rule="evenodd"/>
    <path id="Path_89" data-name="Path 89" d="M157.4,54.3h6.333V50.762H157.4V46.456h6.806V42.9H153.038V62.266h11.615V58.728H157.4Z" transform="translate(-4.662 -34.515)" fill="#373636" fill-rule="evenodd"/>
    <path id="Path_90" data-name="Path 90" d="M167.16,45.532a10.215,10.215,0,0,0-2.869,7.534,9.574,9.574,0,0,0,2.554,6.98,9.317,9.317,0,0,0,7,2.619,12.789,12.789,0,0,0,5.538-1.026V57.656a9.071,9.071,0,0,1-4.674,1.243,5.584,5.584,0,0,1-4.255-1.668,6.248,6.248,0,0,1-1.581-4.476,6.343,6.343,0,0,1,1.674-4.644,5.925,5.925,0,0,1,4.405-1.715,8.465,8.465,0,0,1,4.429,1.162v-4.2a13.921,13.921,0,0,0-4.781-.716A10.034,10.034,0,0,0,167.16,45.532Z" transform="translate(-1.991 -34.577)" fill="#373636" fill-rule="evenodd"/>
    <path id="Path_91" data-name="Path 91" d="M191.945,42.9v7.724h-8.022V42.9h-4.362V62.266h4.362V54.38h8.022v7.886h4.377V42.9Z" transform="translate(1.634 -34.515)" fill="#373636" fill-rule="evenodd"/>
    <path id="Path_92" data-name="Path 92" d="M64.365,70.486V64.193H64.8v6.293Z" transform="translate(-25.711 -29.461)" fill="#373636"/>
    <path id="Path_93" data-name="Path 93" d="M70.728,70.486,66.981,65.4a3.021,3.021,0,0,1-.2-.307l-.056-.088H66.7v5.475h-.434V64.193H66.6l3.731,5.05c.081.111.17.244.267.4h.023c-.016-.2-.023-.38-.023-.526V64.193h.436v6.293Z" transform="translate(-25.259 -29.461)" fill="#373636"/>
    <path id="Path_94" data-name="Path 94" d="M76.132,70.486,72.383,65.4a2.629,2.629,0,0,1-.2-.307l-.059-.088h-.018v5.475H71.69V64.193h.334l3.713,5.05c.081.111.172.244.267.4h.023c-.014-.2-.023-.38-.023-.526V64.193h.432v6.293Z" transform="translate(-23.973 -29.461)" fill="#373636"/>
    <path id="Path_95" data-name="Path 95" d="M79.737,70.619a2.711,2.711,0,0,1-2.126-.888,3.329,3.329,0,0,1-.791-2.3,3.482,3.482,0,0,1,.814-2.413,2.82,2.82,0,0,1,2.223-.9,2.653,2.653,0,0,1,2.061.872,3.279,3.279,0,0,1,.786,2.284,3.537,3.537,0,0,1-.807,2.459,2.766,2.766,0,0,1-2.16.893Zm.045-6.115a2.314,2.314,0,0,0-1.808.8,3.453,3.453,0,0,0-.029,4.149,2.26,2.26,0,0,0,1.79.771,2.351,2.351,0,0,0,1.848-.761,3.082,3.082,0,0,0,.678-2.122,2.973,2.973,0,0,0-.664-2.083,2.3,2.3,0,0,0-1.81-.75Z" transform="translate(-22.755 -29.481)" fill="#373636"/>
    <path id="Path_96" data-name="Path 96" d="M84.991,70.486h-.325l-2.3-6.293h.486l1.821,5.068a3.47,3.47,0,0,1,.163.6h.018a4.545,4.545,0,0,1,.181-.608l1.934-5.059h.466Z" transform="translate(-21.438 -29.461)" fill="#373636"/>
    <path id="Path_97" data-name="Path 97" d="M91.089,70.486l-.719-1.957h-2.73l-.721,1.957h-.477l2.373-6.293h.414l2.348,6.293Zm-1.93-5.267a2.363,2.363,0,0,1-.079-.258c-.02-.074-.043-.147-.066-.226H89a4.331,4.331,0,0,1-.145.47l-1.057,2.917h2.427Z" transform="translate(-20.47 -29.461)" fill="#373636"/>
    <path id="Path_98" data-name="Path 98" d="M92.725,64.593v5.893h-.418V64.593H90.5v-.4h4.067v.4Z" transform="translate(-19.508 -29.461)" fill="#373636"/>
    <path id="Path_99" data-name="Path 99" d="M94.882,70.486V64.193h.452v6.293Z" transform="translate(-18.467 -29.461)" fill="#373636"/>
    <path id="Path_100" data-name="Path 100" d="M99.46,70.619a2.711,2.711,0,0,1-2.126-.888,3.328,3.328,0,0,1-.791-2.3,3.482,3.482,0,0,1,.813-2.413,2.82,2.82,0,0,1,2.223-.9,2.654,2.654,0,0,1,2.061.872,3.278,3.278,0,0,1,.786,2.284,3.535,3.535,0,0,1-.807,2.459,2.765,2.765,0,0,1-2.16.893ZM99.5,64.5a2.314,2.314,0,0,0-1.808.8,3.453,3.453,0,0,0-.029,4.149,2.26,2.26,0,0,0,1.79.771,2.349,2.349,0,0,0,1.848-.761,3.077,3.077,0,0,0,.678-2.122,2.972,2.972,0,0,0-.664-2.083A2.3,2.3,0,0,0,99.5,64.5Z" transform="translate(-18.074 -29.481)" fill="#373636"/>
    <path id="Path_101" data-name="Path 101" d="M107.038,70.486,103.29,65.4a2.829,2.829,0,0,1-.2-.307l-.057-.088h-.017v5.475h-.437V64.193h.335l3.731,5.05c.08.111.171.244.269.4h.02c-.014-.2-.02-.38-.02-.526V64.193h.434v6.293Z" transform="translate(-16.64 -29.461)" fill="#373636"/>
    <path id="Path_102" data-name="Path 102" d="M111.843,72.711V63.722h.416v8.989Z" transform="translate(-14.441 -29.573)" fill="#373636"/>
    <path id="Path_103" data-name="Path 103" d="M119.4,64.593v5.893h-.434V64.593h-1.808v-.4h4.067v.4Z" transform="translate(-13.179 -29.461)" fill="#373636"/>
    <path id="Path_104" data-name="Path 104" d="M124.941,70.486l-.72-1.957h-2.73l-.719,1.957h-.479l2.375-6.293h.412l2.347,6.293Zm-1.932-5.267a2.652,2.652,0,0,1-.079-.258c-.02-.074-.043-.147-.066-.226h-.017a4.446,4.446,0,0,1-.145.47l-1.058,2.917h2.426Z" transform="translate(-12.435 -29.461)" fill="#373636"/>
    <path id="Path_105" data-name="Path 105" d="M125.562,70.486V64.193H126v5.9h2.524v.4Z" transform="translate(-11.184 -29.461)" fill="#373636"/>
    <path id="Path_106" data-name="Path 106" d="M129.143,70.486V64.193h2.938v.4h-2.508v2.522H131.9v.4h-2.327v2.58h2.653v.4Z" transform="translate(-10.334 -29.461)" fill="#373636"/>
    <path id="Path_107" data-name="Path 107" d="M137.482,70.486,133.731,65.4a3.042,3.042,0,0,1-.2-.307l-.056-.088h-.019v5.475h-.422V64.193h.334l3.722,5.05c.08.111.171.244.266.4h.022c-.014-.2-.022-.38-.022-.526V64.193h.445v6.293Z" transform="translate(-9.411 -29.461)" fill="#373636"/>
    <path id="Path_108" data-name="Path 108" d="M140.247,64.593v5.893h-.432V64.593h-1.808v-.4h4.067v.4Z" transform="translate(-8.23 -29.461)" fill="#373636"/>
    <path id="Path_109" data-name="Path 109" d="M146.258,72.711V63.722h.417v8.989Z" transform="translate(-6.271 -29.573)" fill="#373636"/>
    <path id="Path_110" data-name="Path 110" d="M152.008,70.486V64.193h2.938v.4h-2.5v2.522h2.318v.4h-2.328v2.58h2.652v.4Z" transform="translate(-4.907 -29.461)" fill="#373636"/>
    <path id="Path_111" data-name="Path 111" d="M159.411,70.484l-1.449-2.4a4.447,4.447,0,0,1-.225-.438h-.024a4.277,4.277,0,0,1-.249.438l-1.489,2.4h-.522l1.988-3.163L155.572,64.2h.522l1.409,2.366c.073.122.15.262.226.42h.019l.225-.42,1.4-2.366h.506l-1.868,3.1,1.932,3.182Z" transform="translate(-4.089 -29.459)" fill="#373636"/>
    <path id="Path_112" data-name="Path 112" d="M164.363,70.3a4.133,4.133,0,0,1-1.594.316,2.753,2.753,0,0,1-2.1-.868,3.164,3.164,0,0,1-.815-2.26,3.407,3.407,0,0,1,.883-2.456,2.969,2.969,0,0,1,2.241-.924,4.193,4.193,0,0,1,1.388.226v.452a3.358,3.358,0,0,0-1.395-.3,2.5,2.5,0,0,0-1.928.8,3.032,3.032,0,0,0-.741,2.138,2.845,2.845,0,0,0,.708,2.034,2.381,2.381,0,0,0,1.808.743,3.509,3.509,0,0,0,1.557-.337Z" transform="translate(-3.046 -29.481)" fill="#373636"/>
    <path id="Path_113" data-name="Path 113" d="M164.885,70.486V64.193h2.938v.4h-2.5v2.522h2.328v.4h-2.328v2.58h2.655v.4Z" transform="translate(-1.85 -29.461)" fill="#373636"/>
    <path id="Path_114" data-name="Path 114" d="M168.772,70.486V64.193h.434v5.9h2.524v.4Z" transform="translate(-0.927 -29.461)" fill="#373636"/>
    <path id="Path_115" data-name="Path 115" d="M172.354,70.486V64.193h.436v5.9h2.524v.4Z" transform="translate(-0.077 -29.461)" fill="#373636"/>
    <path id="Path_116" data-name="Path 116" d="M175.936,70.486V64.193h2.938v.4h-2.5v2.522H178.7v.4h-2.325v2.58h2.65v.4Z" transform="translate(0.773 -29.461)" fill="#373636"/>
    <path id="Path_117" data-name="Path 117" d="M184.279,70.486,180.529,65.4a2.73,2.73,0,0,1-.2-.307l-.059-.088h-.022v5.475h-.434V64.193h.335l3.734,5.05c.082.111.172.244.267.4h.022c-.014-.2-.022-.38-.022-.526V64.193h.436v6.293Z" transform="translate(1.694 -29.461)" fill="#373636"/>
    <path id="Path_118" data-name="Path 118" d="M189.478,70.3a4.154,4.154,0,0,1-1.595.316,2.753,2.753,0,0,1-2.1-.868,3.165,3.165,0,0,1-.814-2.26,3.416,3.416,0,0,1,.881-2.456,2.972,2.972,0,0,1,2.245-.924,4.209,4.209,0,0,1,1.387.226v.452a3.377,3.377,0,0,0-1.4-.3,2.5,2.5,0,0,0-1.927.8,3.027,3.027,0,0,0-.741,2.138,2.841,2.841,0,0,0,.709,2.034,2.378,2.378,0,0,0,1.808.743,3.528,3.528,0,0,0,1.559-.337Z" transform="translate(2.916 -29.481)" fill="#373636"/>
    <path id="Path_119" data-name="Path 119" d="M190,70.486V64.193h2.938v.4h-2.5v2.522h2.327v.4h-2.327v2.58h2.653v.4Z" transform="translate(4.111 -29.461)" fill="#373636"/>
  </g>
</svg>
